<svg width="170" height="31" viewBox="0 0 170 31" fill="none" xmlns="http://www.w3.org/2000/svg">
<path d="M170.446 23.9053C169.695 29.7817 163.693 31.3314 158.724 30.6113C163.648 26.5554 164.122 17.5912 158.47 14.0942V13.7197C161.705 11.0926 162.518 5.64837 160.209 2.13985C159.74 1.43124 158.843 1.02796 158.724 0.163791H162.671C163.213 0.163791 165.793 1.44852 166.341 1.86332C169.61 4.32907 169.362 10.2688 166.121 12.6942C165.488 13.1666 164.658 13.1609 164.325 13.8407C167.866 14.5378 169.52 17.5739 170.44 20.8116C170.35 21.7968 170.565 22.9547 170.44 23.9111L170.446 23.9053Z" fill="#2D2D2D"/>
<path d="M5.84122 0.423041H-0.0197754V30.8763H5.84122V0.423041Z" fill="#2D2D2D"/>
<path d="M13.4865 -0.095459C24.977 5.10682 26.6314 22.4593 15.1861 28.8541C13.8479 29.6031 11.8603 30.4788 10.4318 30.4903C18.5852 23.1967 18.7377 8.46555 12.4701 -0.095459H13.4921H13.4865Z" fill="#2D2D2D"/>
<path d="M67.2462 0.163791H60.3688V30.617H67.2462V0.163791Z" fill="#2D2D2D"/>
<path d="M118.719 0.163791H111.842V30.617H118.719V0.163791Z" fill="#2D2D2D"/>
<path d="M89.4141 0.423041L104.196 30.617C101.718 31.0837 99.0695 30.8878 96.681 30.3578L86.5683 10.407C85.998 9.25482 85.9585 7.85487 86.2182 6.60471C86.3537 5.94219 88.4316 1.42547 88.8438 0.757185C89.0075 0.492174 88.8269 0.302058 89.4141 0.428802V0.423041Z" fill="#2D2D2D"/>
<path d="M51.9613 30.6113C49.4769 31.0837 46.84 30.8763 44.4402 30.3578L34.4122 10.3206C32.6674 6.80635 35.9649 3.40154 37.0547 0.15803L51.9613 30.6055V30.6113Z" fill="#2D2D2D"/>
<path d="M151.841 30.6113C150.542 30.8993 149.21 30.9396 147.883 30.882C147.166 30.8532 144.806 30.617 144.439 30.2426L134.202 9.90007C133.061 5.98827 136.048 3.74144 136.81 0.163791L151.841 30.6113Z" fill="#2D2D2D"/>
<path d="M124.072 30.8763L129.797 20.2931L136.048 30.8763H124.072Z" fill="#BC1E2E"/>
<path d="M88.3977 30.617H76.1675L82.0229 20.0339L88.3977 30.617Z" fill="#2D2D2D"/>
<path d="M36.1626 30.617H23.9324L29.5393 20.0339L36.1626 30.617Z" fill="#2D2D2D"/>
<path d="M77.6977 9.4507L70.8147 0.163791H77.3138L77.6977 0.549785V9.4507Z" fill="#2D2D2D"/>
<path d="M57.3085 0.163791C55.8686 1.42547 54.5361 2.77934 53.3786 4.31755L50.1714 9.45646V0.163791H57.3085Z" fill="#2D2D2D"/>
</svg>
